<?xml version="1.0" encoding="UTF-8"?>
<!DOCTYPE svg PUBLIC "-//W3C//DTD SVG 1.1//EN"
 "http://www.w3.org/Graphics/SVG/1.1/DTD/svg11.dtd">
<svg xmlns="http://www.w3.org/2000/svg" version="1.1"
     width="180mm" height="25mm"
     viewBox="0 0 629 1" preserveAspectRatio="none"
     shape-rendering="crispEdges" stroke="none">
<rect width="1" height=".96" x="0" y="0" fill="#C86554" />
<rect width="1" height=".96" x="1" y="0" fill="#C86553" />
<rect width="1" height=".96" x="2" y="0" fill="#C86552" />
<rect width="1" height=".96" x="3" y="0" fill="#C86652" />
<rect width="1" height=".96" x="4" y="0" fill="#C86651" />
<rect width="1" height=".96" x="5" y="0" fill="#C86650" />
<rect width="1" height=".96" x="6" y="0" fill="#C8664F" />
<rect width="1" height=".96" x="7" y="0" fill="#C8664F" />
<rect width="1" height=".96" x="8" y="0" fill="#C9674E" />
<rect width="1" height=".96" x="9" y="0" fill="#C9674D" />
<rect width="1" height=".96" x="10" y="0" fill="#C9684D" />
<rect width="1" height=".96" x="11" y="0" fill="#C9684C" />
<rect width="1" height=".96" x="12" y="0" fill="#CA684B" />
<rect width="1" height=".96" x="13" y="0" fill="#CA694B" />
<rect width="1" height=".96" x="14" y="0" fill="#CA694A" />
<rect width="1" height=".96" x="15" y="0" fill="#CB6A4A" />
<rect width="1" height=".96" x="16" y="0" fill="#CB6A49" />
<rect width="1" height=".96" x="17" y="0" fill="#CC6B49" />
<rect width="1" height=".96" x="18" y="0" fill="#CC6C48" />
<rect width="1" height=".96" x="19" y="0" fill="#CD6C48" />
<rect width="1" height=".96" x="20" y="0" fill="#CD6D47" />
<rect width="1" height=".96" x="21" y="0" fill="#CD6E47" />
<rect width="1" height=".96" x="22" y="0" fill="#CE6E46" />
<rect width="1" height=".96" x="23" y="0" fill="#CF6F46" />
<rect width="1" height=".96" x="24" y="0" fill="#CF7046" />
<rect width="1" height=".96" x="25" y="0" fill="#D07145" />
<rect width="1" height=".96" x="26" y="0" fill="#D07145" />
<rect width="1" height=".96" x="27" y="0" fill="#D17245" />
<rect width="1" height=".96" x="28" y="0" fill="#D17345" />
<rect width="1" height=".96" x="29" y="0" fill="#D27444" />
<rect width="1" height=".96" x="30" y="0" fill="#D37544" />
<rect width="1" height=".96" x="31" y="0" fill="#D37644" />
<rect width="1" height=".96" x="32" y="0" fill="#D47744" />
<rect width="1" height=".96" x="33" y="0" fill="#D57844" />
<rect width="1" height=".96" x="34" y="0" fill="#D57943" />
<rect width="1" height=".96" x="35" y="0" fill="#D67A43" />
<rect width="1" height=".96" x="36" y="0" fill="#D77B43" />
<rect width="1" height=".96" x="37" y="0" fill="#D87C43" />
<rect width="1" height=".96" x="38" y="0" fill="#D87D43" />
<rect width="1" height=".96" x="39" y="0" fill="#D97E43" />
<rect width="1" height=".96" x="40" y="0" fill="#DA7F43" />
<rect width="1" height=".96" x="41" y="0" fill="#DB8043" />
<rect width="1" height=".96" x="42" y="0" fill="#DB8143" />
<rect width="1" height=".96" x="43" y="0" fill="#DC8243" />
<rect width="1" height=".96" x="44" y="0" fill="#DD8343" />
<rect width="1" height=".96" x="45" y="0" fill="#DE8443" />
<rect width="1" height=".96" x="46" y="0" fill="#DE8543" />
<rect width="1" height=".96" x="47" y="0" fill="#DF8743" />
<rect width="1" height=".96" x="48" y="0" fill="#E08843" />
<rect width="1" height=".96" x="49" y="0" fill="#E18944" />
<rect width="1" height=".96" x="50" y="0" fill="#E28A44" />
<rect width="1" height=".96" x="51" y="0" fill="#E28B44" />
<rect width="1" height=".96" x="52" y="0" fill="#E38C44" />
<rect width="1" height=".96" x="53" y="0" fill="#E48E44" />
<rect width="1" height=".96" x="54" y="0" fill="#E58F44" />
<rect width="1" height=".96" x="55" y="0" fill="#E59045" />
<rect width="1" height=".96" x="56" y="0" fill="#E69145" />
<rect width="1" height=".96" x="57" y="0" fill="#E79245" />
<rect width="1" height=".96" x="58" y="0" fill="#E79445" />
<rect width="1" height=".96" x="59" y="0" fill="#E89545" />
<rect width="1" height=".96" x="60" y="0" fill="#E99646" />
<rect width="1" height=".96" x="61" y="0" fill="#E99746" />
<rect width="1" height=".96" x="62" y="0" fill="#EA9846" />
<rect width="1" height=".96" x="63" y="0" fill="#EB9946" />
<rect width="1" height=".96" x="64" y="0" fill="#EB9B47" />
<rect width="1" height=".96" x="65" y="0" fill="#EC9C47" />
<rect width="1" height=".96" x="66" y="0" fill="#ED9D47" />
<rect width="1" height=".96" x="67" y="0" fill="#ED9E47" />
<rect width="1" height=".96" x="68" y="0" fill="#EE9F47" />
<rect width="1" height=".96" x="69" y="0" fill="#EEA048" />
<rect width="1" height=".96" x="70" y="0" fill="#EFA148" />
<rect width="1" height=".96" x="71" y="0" fill="#EFA248" />
<rect width="1" height=".96" x="72" y="0" fill="#F0A448" />
<rect width="1" height=".96" x="73" y="0" fill="#F0A549" />
<rect width="1" height=".96" x="74" y="0" fill="#F1A649" />
<rect width="1" height=".96" x="75" y="0" fill="#F1A749" />
<rect width="1" height=".96" x="76" y="0" fill="#F1A849" />
<rect width="1" height=".96" x="77" y="0" fill="#F2A94A" />
<rect width="1" height=".96" x="78" y="0" fill="#F2AA4A" />
<rect width="1" height=".96" x="79" y="0" fill="#F2AB4A" />
<rect width="1" height=".96" x="80" y="0" fill="#F3AC4A" />
<rect width="1" height=".96" x="81" y="0" fill="#F3AD4A" />
<rect width="1" height=".96" x="82" y="0" fill="#F3AD4A" />
<rect width="1" height=".96" x="83" y="0" fill="#F3AE4B" />
<rect width="1" height=".96" x="84" y="0" fill="#F3AF4B" />
<rect width="1" height=".96" x="85" y="0" fill="#F3B04B" />
<rect width="1" height=".96" x="86" y="0" fill="#F3B14B" />
<rect width="1" height=".96" x="87" y="0" fill="#F4B24B" />
<rect width="1" height=".96" x="88" y="0" fill="#F4B24B" />
<rect width="1" height=".96" x="89" y="0" fill="#F4B34B" />
<rect width="1" height=".96" x="90" y="0" fill="#F3B44B" />
<rect width="1" height=".96" x="91" y="0" fill="#F3B54B" />
<rect width="1" height=".96" x="92" y="0" fill="#F3B54B" />
<rect width="1" height=".96" x="93" y="0" fill="#F3B64C" />
<rect width="1" height=".96" x="94" y="0" fill="#F3B74C" />
<rect width="1" height=".96" x="95" y="0" fill="#F3B74C" />
<rect width="1" height=".96" x="96" y="0" fill="#F2B84C" />
<rect width="1" height=".96" x="97" y="0" fill="#F2B84B" />
<rect width="1" height=".96" x="98" y="0" fill="#F2B94B" />
<rect width="1" height=".96" x="99" y="0" fill="#F2B94B" />
<rect width="1" height=".96" x="100" y="0" fill="#F1BA4B" />
<rect width="1" height=".96" x="101" y="0" fill="#F1BA4B" />
<rect width="1" height=".96" x="102" y="0" fill="#F0BB4B" />
<rect width="1" height=".96" x="103" y="0" fill="#F0BB4B" />
<rect width="1" height=".96" x="104" y="0" fill="#EFBB4B" />
<rect width="1" height=".96" x="105" y="0" fill="#EFBC4B" />
<rect width="1" height=".96" x="106" y="0" fill="#EEBC4A" />
<rect width="1" height=".96" x="107" y="0" fill="#EDBC4A" />
<rect width="1" height=".96" x="108" y="0" fill="#EDBC4A" />
<rect width="1" height=".96" x="109" y="0" fill="#ECBD4A" />
<rect width="1" height=".96" x="110" y="0" fill="#EBBD49" />
<rect width="1" height=".96" x="111" y="0" fill="#EABD49" />
<rect width="1" height=".96" x="112" y="0" fill="#EABD49" />
<rect width="1" height=".96" x="113" y="0" fill="#E9BD49" />
<rect width="1" height=".96" x="114" y="0" fill="#E8BD48" />
<rect width="1" height=".96" x="115" y="0" fill="#E7BD48" />
<rect width="1" height=".96" x="116" y="0" fill="#E6BD48" />
<rect width="1" height=".96" x="117" y="0" fill="#E5BD47" />
<rect width="1" height=".96" x="118" y="0" fill="#E4BD47" />
<rect width="1" height=".96" x="119" y="0" fill="#E3BD46" />
<rect width="1" height=".96" x="120" y="0" fill="#E2BD46" />
<rect width="1" height=".96" x="121" y="0" fill="#E1BD46" />
<rect width="1" height=".96" x="122" y="0" fill="#E0BD45" />
<rect width="1" height=".96" x="123" y="0" fill="#DFBD45" />
<rect width="1" height=".96" x="124" y="0" fill="#DDBC44" />
<rect width="1" height=".96" x="125" y="0" fill="#DCBC44" />
<rect width="1" height=".96" x="126" y="0" fill="#DBBC43" />
<rect width="1" height=".96" x="127" y="0" fill="#DABC43" />
<rect width="1" height=".96" x="128" y="0" fill="#D8BB42" />
<rect width="1" height=".96" x="129" y="0" fill="#D7BB42" />
<rect width="1" height=".96" x="130" y="0" fill="#D6BB41" />
<rect width="1" height=".96" x="131" y="0" fill="#D4BA41" />
<rect width="1" height=".96" x="132" y="0" fill="#D3BA40" />
<rect width="1" height=".96" x="133" y="0" fill="#D2B93F" />
<rect width="1" height=".96" x="134" y="0" fill="#D0B93F" />
<rect width="1" height=".96" x="135" y="0" fill="#CFB93E" />
<rect width="1" height=".96" x="136" y="0" fill="#CDB83E" />
<rect width="1" height=".96" x="137" y="0" fill="#CCB83D" />
<rect width="1" height=".96" x="138" y="0" fill="#CAB73D" />
<rect width="1" height=".96" x="139" y="0" fill="#C9B73C" />
<rect width="1" height=".96" x="140" y="0" fill="#C7B63B" />
<rect width="1" height=".96" x="141" y="0" fill="#C5B63B" />
<rect width="1" height=".96" x="142" y="0" fill="#C4B53A" />
<rect width="1" height=".96" x="143" y="0" fill="#C2B43A" />
<rect width="1" height=".96" x="144" y="0" fill="#C1B439" />
<rect width="1" height=".96" x="145" y="0" fill="#BFB339" />
<rect width="1" height=".96" x="146" y="0" fill="#BDB338" />
<rect width="1" height=".96" x="147" y="0" fill="#BCB237" />
<rect width="1" height=".96" x="148" y="0" fill="#BAB137" />
<rect width="1" height=".96" x="149" y="0" fill="#B8B136" />
<rect width="1" height=".96" x="150" y="0" fill="#B7B036" />
<rect width="1" height=".96" x="151" y="0" fill="#B5AF35" />
<rect width="1" height=".96" x="152" y="0" fill="#B3AF35" />
<rect width="1" height=".96" x="153" y="0" fill="#B2AE34" />
<rect width="1" height=".96" x="154" y="0" fill="#B0AD34" />
<rect width="1" height=".96" x="155" y="0" fill="#AEAD33" />
<rect width="1" height=".96" x="156" y="0" fill="#ADAC33" />
<rect width="1" height=".96" x="157" y="0" fill="#ABAB32" />
<rect width="1" height=".96" x="158" y="0" fill="#A9AB32" />
<rect width="1" height=".96" x="159" y="0" fill="#A8AA32" />
<rect width="1" height=".96" x="160" y="0" fill="#A6A931" />
<rect width="1" height=".96" x="161" y="0" fill="#A4A931" />
<rect width="1" height=".96" x="162" y="0" fill="#A2A830" />
<rect width="1" height=".96" x="163" y="0" fill="#A1A730" />
<rect width="1" height=".96" x="164" y="0" fill="#9FA730" />
<rect width="1" height=".96" x="165" y="0" fill="#9DA630" />
<rect width="1" height=".96" x="166" y="0" fill="#9CA52F" />
<rect width="1" height=".96" x="167" y="0" fill="#9AA52F" />
<rect width="1" height=".96" x="168" y="0" fill="#98A42F" />
<rect width="1" height=".96" x="169" y="0" fill="#97A32F" />
<rect width="1" height=".96" x="170" y="0" fill="#95A32F" />
<rect width="1" height=".96" x="171" y="0" fill="#93A22F" />
<rect width="1" height=".96" x="172" y="0" fill="#92A22F" />
<rect width="1" height=".96" x="173" y="0" fill="#90A12E" />
<rect width="1" height=".96" x="174" y="0" fill="#8EA02E" />
<rect width="1" height=".96" x="175" y="0" fill="#8DA02E" />
<rect width="1" height=".96" x="176" y="0" fill="#8B9F2F" />
<rect width="1" height=".96" x="177" y="0" fill="#8A9F2F" />
<rect width="1" height=".96" x="178" y="0" fill="#889E2F" />
<rect width="1" height=".96" x="179" y="0" fill="#879E2F" />
<rect width="1" height=".96" x="180" y="0" fill="#859D2F" />
<rect width="1" height=".96" x="181" y="0" fill="#839D2F" />
<rect width="1" height=".96" x="182" y="0" fill="#829C30" />
<rect width="1" height=".96" x="183" y="0" fill="#809C30" />
<rect width="1" height=".96" x="184" y="0" fill="#7F9B30" />
<rect width="1" height=".96" x="185" y="0" fill="#7D9B30" />
<rect width="1" height=".96" x="186" y="0" fill="#7C9B31" />
<rect width="1" height=".96" x="187" y="0" fill="#7B9A31" />
<rect width="1" height=".96" x="188" y="0" fill="#799A32" />
<rect width="1" height=".96" x="189" y="0" fill="#789A32" />
<rect width="1" height=".96" x="190" y="0" fill="#769933" />
<rect width="1" height=".96" x="191" y="0" fill="#759933" />
<rect width="1" height=".96" x="192" y="0" fill="#749934" />
<rect width="1" height=".96" x="193" y="0" fill="#729834" />
<rect width="1" height=".96" x="194" y="0" fill="#719835" />
<rect width="1" height=".96" x="195" y="0" fill="#709835" />
<rect width="1" height=".96" x="196" y="0" fill="#6E9836" />
<rect width="1" height=".96" x="197" y="0" fill="#6D9837" />
<rect width="1" height=".96" x="198" y="0" fill="#6C9838" />
<rect width="1" height=".96" x="199" y="0" fill="#6B9738" />
<rect width="1" height=".96" x="200" y="0" fill="#6A9739" />
<rect width="1" height=".96" x="201" y="0" fill="#68973A" />
<rect width="1" height=".96" x="202" y="0" fill="#67973B" />
<rect width="1" height=".96" x="203" y="0" fill="#66973B" />
<rect width="1" height=".96" x="204" y="0" fill="#65973C" />
<rect width="1" height=".96" x="205" y="0" fill="#64973D" />
<rect width="1" height=".96" x="206" y="0" fill="#63973E" />
<rect width="1" height=".96" x="207" y="0" fill="#62973F" />
<rect width="1" height=".96" x="208" y="0" fill="#619840" />
<rect width="1" height=".96" x="209" y="0" fill="#609841" />
<rect width="1" height=".96" x="210" y="0" fill="#5F9842" />
<rect width="1" height=".96" x="211" y="0" fill="#5E9843" />
<rect width="1" height=".96" x="212" y="0" fill="#5D9844" />
<rect width="1" height=".96" x="213" y="0" fill="#5C9945" />
<rect width="1" height=".96" x="214" y="0" fill="#5B9946" />
<rect width="1" height=".96" x="215" y="0" fill="#5A9947" />
<rect width="1" height=".96" x="216" y="0" fill="#599948" />
<rect width="1" height=".96" x="217" y="0" fill="#599A4A" />
<rect width="1" height=".96" x="218" y="0" fill="#589A4B" />
<rect width="1" height=".96" x="219" y="0" fill="#579B4C" />
<rect width="1" height=".96" x="220" y="0" fill="#569B4D" />
<rect width="1" height=".96" x="221" y="0" fill="#569B4E" />
<rect width="1" height=".96" x="222" y="0" fill="#559C50" />
<rect width="1" height=".96" x="223" y="0" fill="#549C51" />
<rect width="1" height=".96" x="224" y="0" fill="#539D52" />
<rect width="1" height=".96" x="225" y="0" fill="#539D54" />
<rect width="1" height=".96" x="226" y="0" fill="#529E55" />
<rect width="1" height=".96" x="227" y="0" fill="#529F56" />
<rect width="1" height=".96" x="228" y="0" fill="#519F58" />
<rect width="1" height=".96" x="229" y="0" fill="#50A059" />
<rect width="1" height=".96" x="230" y="0" fill="#50A05B" />
<rect width="1" height=".96" x="231" y="0" fill="#4FA15C" />
<rect width="1" height=".96" x="232" y="0" fill="#4FA25D" />
<rect width="1" height=".96" x="233" y="0" fill="#4EA25F" />
<rect width="1" height=".96" x="234" y="0" fill="#4EA360" />
<rect width="1" height=".96" x="235" y="0" fill="#4EA462" />
<rect width="1" height=".96" x="236" y="0" fill="#4DA563" />
<rect width="1" height=".96" x="237" y="0" fill="#4DA665" />
<rect width="1" height=".96" x="238" y="0" fill="#4CA667" />
<rect width="1" height=".96" x="239" y="0" fill="#4CA768" />
<rect width="1" height=".96" x="240" y="0" fill="#4CA86A" />
<rect width="1" height=".96" x="241" y="0" fill="#4BA96B" />
<rect width="1" height=".96" x="242" y="0" fill="#4BAA6D" />
<rect width="1" height=".96" x="243" y="0" fill="#4BAB6F" />
<rect width="1" height=".96" x="244" y="0" fill="#4BAB70" />
<rect width="1" height=".96" x="245" y="0" fill="#4BAC72" />
<rect width="1" height=".96" x="246" y="0" fill="#4AAD74" />
<rect width="1" height=".96" x="247" y="0" fill="#4AAE75" />
<rect width="1" height=".96" x="248" y="0" fill="#4AAF77" />
<rect width="1" height=".96" x="249" y="0" fill="#4AB079" />
<rect width="1" height=".96" x="250" y="0" fill="#4AB17A" />
<rect width="1" height=".96" x="251" y="0" fill="#4AB27C" />
<rect width="1" height=".96" x="252" y="0" fill="#4AB37E" />
<rect width="1" height=".96" x="253" y="0" fill="#4AB480" />
<rect width="1" height=".96" x="254" y="0" fill="#4AB581" />
<rect width="1" height=".96" x="255" y="0" fill="#4AB683" />
<rect width="1" height=".96" x="256" y="0" fill="#4AB785" />
<rect width="1" height=".96" x="257" y="0" fill="#4AB887" />
<rect width="1" height=".96" x="258" y="0" fill="#4AB988" />
<rect width="1" height=".96" x="259" y="0" fill="#4ABA8A" />
<rect width="1" height=".96" x="260" y="0" fill="#4ABB8C" />
<rect width="1" height=".96" x="261" y="0" fill="#4ABC8E" />
<rect width="1" height=".96" x="262" y="0" fill="#4BBD8F" />
<rect width="1" height=".96" x="263" y="0" fill="#4BBE91" />
<rect width="1" height=".96" x="264" y="0" fill="#4BBF93" />
<rect width="1" height=".96" x="265" y="0" fill="#4BC095" />
<rect width="1" height=".96" x="266" y="0" fill="#4BC197" />
<rect width="1" height=".96" x="267" y="0" fill="#4CC298" />
<rect width="1" height=".96" x="268" y="0" fill="#4CC39A" />
<rect width="1" height=".96" x="269" y="0" fill="#4CC49C" />
<rect width="1" height=".96" x="270" y="0" fill="#4CC59E" />
<rect width="1" height=".96" x="271" y="0" fill="#4DC69F" />
<rect width="1" height=".96" x="272" y="0" fill="#4DC7A1" />
<rect width="1" height=".96" x="273" y="0" fill="#4DC8A3" />
<rect width="1" height=".96" x="274" y="0" fill="#4EC8A5" />
<rect width="1" height=".96" x="275" y="0" fill="#4EC9A6" />
<rect width="1" height=".96" x="276" y="0" fill="#4ECAA8" />
<rect width="1" height=".96" x="277" y="0" fill="#4FCBAA" />
<rect width="1" height=".96" x="278" y="0" fill="#4FCCAB" />
<rect width="1" height=".96" x="279" y="0" fill="#4FCDAD" />
<rect width="1" height=".96" x="280" y="0" fill="#50CEAF" />
<rect width="1" height=".96" x="281" y="0" fill="#50CFB0" />
<rect width="1" height=".96" x="282" y="0" fill="#50CFB2" />
<rect width="1" height=".96" x="283" y="0" fill="#51D0B3" />
<rect width="1" height=".96" x="284" y="0" fill="#51D1B5" />
<rect width="1" height=".96" x="285" y="0" fill="#51D2B7" />
<rect width="1" height=".96" x="286" y="0" fill="#52D2B8" />
<rect width="1" height=".96" x="287" y="0" fill="#52D3BA" />
<rect width="1" height=".96" x="288" y="0" fill="#53D4BB" />
<rect width="1" height=".96" x="289" y="0" fill="#53D4BD" />
<rect width="1" height=".96" x="290" y="0" fill="#53D5BE" />
<rect width="1" height=".96" x="291" y="0" fill="#54D5C0" />
<rect width="1" height=".96" x="292" y="0" fill="#54D6C1" />
<rect width="1" height=".96" x="293" y="0" fill="#54D7C2" />
<rect width="1" height=".96" x="294" y="0" fill="#55D7C4" />
<rect width="1" height=".96" x="295" y="0" fill="#55D8C5" />
<rect width="1" height=".96" x="296" y="0" fill="#55D8C6" />
<rect width="1" height=".96" x="297" y="0" fill="#55D8C8" />
<rect width="1" height=".96" x="298" y="0" fill="#56D9C9" />
<rect width="1" height=".96" x="299" y="0" fill="#56D9CA" />
<rect width="1" height=".96" x="300" y="0" fill="#56DACB" />
<rect width="1" height=".96" x="301" y="0" fill="#56DACC" />
<rect width="1" height=".96" x="302" y="0" fill="#57DACE" />
<rect width="1" height=".96" x="303" y="0" fill="#57DACF" />
<rect width="1" height=".96" x="304" y="0" fill="#57DBD0" />
<rect width="1" height=".96" x="305" y="0" fill="#57DBD1" />
<rect width="1" height=".96" x="306" y="0" fill="#58DBD2" />
<rect width="1" height=".96" x="307" y="0" fill="#58DBD3" />
<rect width="1" height=".96" x="308" y="0" fill="#58DBD4" />
<rect width="1" height=".96" x="309" y="0" fill="#58DBD5" />
<rect width="1" height=".96" x="310" y="0" fill="#58DBD6" />
<rect width="1" height=".96" x="311" y="0" fill="#58DBD6" />
<rect width="1" height=".96" x="312" y="0" fill="#58DBD7" />
<rect width="1" height=".96" x="313" y="0" fill="#59DBD8" />
<rect width="1" height=".96" x="314" y="0" fill="#59DBD9" />
<rect width="1" height=".96" x="315" y="0" fill="#59DBDA" />
<rect width="1" height=".96" x="316" y="0" fill="#59DBDA" />
<rect width="1" height=".96" x="317" y="0" fill="#59DBDB" />
<rect width="1" height=".96" x="318" y="0" fill="#59DBDC" />
<rect width="1" height=".96" x="319" y="0" fill="#59DADC" />
<rect width="1" height=".96" x="320" y="0" fill="#59DADD" />
<rect width="1" height=".96" x="321" y="0" fill="#59DADD" />
<rect width="1" height=".96" x="322" y="0" fill="#59D9DE" />
<rect width="1" height=".96" x="323" y="0" fill="#59D9DE" />
<rect width="1" height=".96" x="324" y="0" fill="#59D9DF" />
<rect width="1" height=".96" x="325" y="0" fill="#59D8DF" />
<rect width="1" height=".96" x="326" y="0" fill="#59D8DF" />
<rect width="1" height=".96" x="327" y="0" fill="#59D7E0" />
<rect width="1" height=".96" x="328" y="0" fill="#58D7E0" />
<rect width="1" height=".96" x="329" y="0" fill="#58D6E0" />
<rect width="1" height=".96" x="330" y="0" fill="#58D5E0" />
<rect width="1" height=".96" x="331" y="0" fill="#58D5E0" />
<rect width="1" height=".96" x="332" y="0" fill="#58D4E1" />
<rect width="1" height=".96" x="333" y="0" fill="#58D4E1" />
<rect width="1" height=".96" x="334" y="0" fill="#58D3E1" />
<rect width="1" height=".96" x="335" y="0" fill="#58D2E1" />
<rect width="1" height=".96" x="336" y="0" fill="#57D1E1" />
<rect width="1" height=".96" x="337" y="0" fill="#57D1E1" />
<rect width="1" height=".96" x="338" y="0" fill="#57D0E1" />
<rect width="1" height=".96" x="339" y="0" fill="#57CFE1" />
<rect width="1" height=".96" x="340" y="0" fill="#57CEE1" />
<rect width="1" height=".96" x="341" y="0" fill="#56CDE1" />
<rect width="1" height=".96" x="342" y="0" fill="#56CCE1" />
<rect width="1" height=".96" x="343" y="0" fill="#56CBE0" />
<rect width="1" height=".96" x="344" y="0" fill="#56CBE0" />
<rect width="1" height=".96" x="345" y="0" fill="#56CAE0" />
<rect width="1" height=".96" x="346" y="0" fill="#55C9E0" />
<rect width="1" height=".96" x="347" y="0" fill="#55C8DF" />
<rect width="1" height=".96" x="348" y="0" fill="#55C7DF" />
<rect width="1" height=".96" x="349" y="0" fill="#55C6DF" />
<rect width="1" height=".96" x="350" y="0" fill="#54C5DF" />
<rect width="1" height=".96" x="351" y="0" fill="#54C3DE" />
<rect width="1" height=".96" x="352" y="0" fill="#54C2DE" />
<rect width="1" height=".96" x="353" y="0" fill="#54C1DD" />
<rect width="1" height=".96" x="354" y="0" fill="#54C0DD" />
<rect width="1" height=".96" x="355" y="0" fill="#53BFDD" />
<rect width="1" height=".96" x="356" y="0" fill="#53BEDC" />
<rect width="1" height=".96" x="357" y="0" fill="#53BDDC" />
<rect width="1" height=".96" x="358" y="0" fill="#53BCDB" />
<rect width="1" height=".96" x="359" y="0" fill="#53BBDB" />
<rect width="1" height=".96" x="360" y="0" fill="#52B9DA" />
<rect width="1" height=".96" x="361" y="0" fill="#52B8DA" />
<rect width="1" height=".96" x="362" y="0" fill="#52B7D9" />
<rect width="1" height=".96" x="363" y="0" fill="#52B6D9" />
<rect width="1" height=".96" x="364" y="0" fill="#52B5D8" />
<rect width="1" height=".96" x="365" y="0" fill="#52B4D8" />
<rect width="1" height=".96" x="366" y="0" fill="#52B2D7" />
<rect width="1" height=".96" x="367" y="0" fill="#51B1D7" />
<rect width="1" height=".96" x="368" y="0" fill="#51B0D6" />
<rect width="1" height=".96" x="369" y="0" fill="#51AFD5" />
<rect width="1" height=".96" x="370" y="0" fill="#51AED5" />
<rect width="1" height=".96" x="371" y="0" fill="#51ADD4" />
<rect width="1" height=".96" x="372" y="0" fill="#51ABD4" />
<rect width="1" height=".96" x="373" y="0" fill="#51AAD3" />
<rect width="1" height=".96" x="374" y="0" fill="#51A9D2" />
<rect width="1" height=".96" x="375" y="0" fill="#51A8D2" />
<rect width="1" height=".96" x="376" y="0" fill="#51A7D1" />
<rect width="1" height=".96" x="377" y="0" fill="#51A6D1" />
<rect width="1" height=".96" x="378" y="0" fill="#51A5D0" />
<rect width="1" height=".96" x="379" y="0" fill="#51A3D0" />
<rect width="1" height=".96" x="380" y="0" fill="#51A2CF" />
<rect width="1" height=".96" x="381" y="0" fill="#51A1CE" />
<rect width="1" height=".96" x="382" y="0" fill="#52A0CE" />
<rect width="1" height=".96" x="383" y="0" fill="#529FCD" />
<rect width="1" height=".96" x="384" y="0" fill="#529ECD" />
<rect width="1" height=".96" x="385" y="0" fill="#529DCC" />
<rect width="1" height=".96" x="386" y="0" fill="#529CCC" />
<rect width="1" height=".96" x="387" y="0" fill="#529BCB" />
<rect width="1" height=".96" x="388" y="0" fill="#539ACB" />
<rect width="1" height=".96" x="389" y="0" fill="#5399CA" />
<rect width="1" height=".96" x="390" y="0" fill="#5398CA" />
<rect width="1" height=".96" x="391" y="0" fill="#5497C9" />
<rect width="1" height=".96" x="392" y="0" fill="#5496C9" />
<rect width="1" height=".96" x="393" y="0" fill="#5495C8" />
<rect width="1" height=".96" x="394" y="0" fill="#5594C8" />
<rect width="1" height=".96" x="395" y="0" fill="#5594C7" />
<rect width="1" height=".96" x="396" y="0" fill="#5593C7" />
<rect width="1" height=".96" x="397" y="0" fill="#5692C6" />
<rect width="1" height=".96" x="398" y="0" fill="#5691C6" />
<rect width="1" height=".96" x="399" y="0" fill="#5790C6" />
<rect width="1" height=".96" x="400" y="0" fill="#5790C5" />
<rect width="1" height=".96" x="401" y="0" fill="#588FC5" />
<rect width="1" height=".96" x="402" y="0" fill="#588EC5" />
<rect width="1" height=".96" x="403" y="0" fill="#598DC4" />
<rect width="1" height=".96" x="404" y="0" fill="#598DC4" />
<rect width="1" height=".96" x="405" y="0" fill="#5A8CC4" />
<rect width="1" height=".96" x="406" y="0" fill="#5A8CC4" />
<rect width="1" height=".96" x="407" y="0" fill="#5B8BC3" />
<rect width="1" height=".96" x="408" y="0" fill="#5C8AC3" />
<rect width="1" height=".96" x="409" y="0" fill="#5C8AC3" />
<rect width="1" height=".96" x="410" y="0" fill="#5D89C3" />
<rect width="1" height=".96" x="411" y="0" fill="#5E89C3" />
<rect width="1" height=".96" x="412" y="0" fill="#5E88C3" />
<rect width="1" height=".96" x="413" y="0" fill="#5F88C3" />
<rect width="1" height=".96" x="414" y="0" fill="#6088C3" />
<rect width="1" height=".96" x="415" y="0" fill="#6187C3" />
<rect width="1" height=".96" x="416" y="0" fill="#6287C3" />
<rect width="1" height=".96" x="417" y="0" fill="#6287C3" />
<rect width="1" height=".96" x="418" y="0" fill="#6386C3" />
<rect width="1" height=".96" x="419" y="0" fill="#6486C3" />
<rect width="1" height=".96" x="420" y="0" fill="#6586C3" />
<rect width="1" height=".96" x="421" y="0" fill="#6685C3" />
<rect width="1" height=".96" x="422" y="0" fill="#6785C3" />
<rect width="1" height=".96" x="423" y="0" fill="#6885C3" />
<rect width="1" height=".96" x="424" y="0" fill="#6985C3" />
<rect width="1" height=".96" x="425" y="0" fill="#6A85C3" />
<rect width="1" height=".96" x="426" y="0" fill="#6B85C4" />
<rect width="1" height=".96" x="427" y="0" fill="#6C85C4" />
<rect width="1" height=".96" x="428" y="0" fill="#6D85C4" />
<rect width="1" height=".96" x="429" y="0" fill="#6E85C4" />
<rect width="1" height=".96" x="430" y="0" fill="#6F85C5" />
<rect width="1" height=".96" x="431" y="0" fill="#7085C5" />
<rect width="1" height=".96" x="432" y="0" fill="#7185C5" />
<rect width="1" height=".96" x="433" y="0" fill="#7385C6" />
<rect width="1" height=".96" x="434" y="0" fill="#7485C6" />
<rect width="1" height=".96" x="435" y="0" fill="#7585C6" />
<rect width="1" height=".96" x="436" y="0" fill="#7685C7" />
<rect width="1" height=".96" x="437" y="0" fill="#7886C7" />
<rect width="1" height=".96" x="438" y="0" fill="#7986C8" />
<rect width="1" height=".96" x="439" y="0" fill="#7A86C8" />
<rect width="1" height=".96" x="440" y="0" fill="#7B86C9" />
<rect width="1" height=".96" x="441" y="0" fill="#7D87C9" />
<rect width="1" height=".96" x="442" y="0" fill="#7E87CA" />
<rect width="1" height=".96" x="443" y="0" fill="#7F87CA" />
<rect width="1" height=".96" x="444" y="0" fill="#8188CB" />
<rect width="1" height=".96" x="445" y="0" fill="#8288CB" />
<rect width="1" height=".96" x="446" y="0" fill="#8488CC" />
<rect width="1" height=".96" x="447" y="0" fill="#8589CC" />
<rect width="1" height=".96" x="448" y="0" fill="#8789CD" />
<rect width="1" height=".96" x="449" y="0" fill="#888ACE" />
<rect width="1" height=".96" x="450" y="0" fill="#8A8ACE" />
<rect width="1" height=".96" x="451" y="0" fill="#8B8BCF" />
<rect width="1" height=".96" x="452" y="0" fill="#8D8BCF" />
<rect width="1" height=".96" x="453" y="0" fill="#8E8CD0" />
<rect width="1" height=".96" x="454" y="0" fill="#908CD1" />
<rect width="1" height=".96" x="455" y="0" fill="#918DD1" />
<rect width="1" height=".96" x="456" y="0" fill="#938DD2" />
<rect width="1" height=".96" x="457" y="0" fill="#948ED3" />
<rect width="1" height=".96" x="458" y="0" fill="#968ED3" />
<rect width="1" height=".96" x="459" y="0" fill="#978FD4" />
<rect width="1" height=".96" x="460" y="0" fill="#9990D5" />
<rect width="1" height=".96" x="461" y="0" fill="#9B90D6" />
<rect width="1" height=".96" x="462" y="0" fill="#9C91D6" />
<rect width="1" height=".96" x="463" y="0" fill="#9E91D7" />
<rect width="1" height=".96" x="464" y="0" fill="#A092D8" />
<rect width="1" height=".96" x="465" y="0" fill="#A193D8" />
<rect width="1" height=".96" x="466" y="0" fill="#A393D9" />
<rect width="1" height=".96" x="467" y="0" fill="#A494DA" />
<rect width="1" height=".96" x="468" y="0" fill="#A695DA" />
<rect width="1" height=".96" x="469" y="0" fill="#A895DB" />
<rect width="1" height=".96" x="470" y="0" fill="#A996DC" />
<rect width="1" height=".96" x="471" y="0" fill="#AB97DD" />
<rect width="1" height=".96" x="472" y="0" fill="#AD97DD" />
<rect width="1" height=".96" x="473" y="0" fill="#AE98DE" />
<rect width="1" height=".96" x="474" y="0" fill="#B099DF" />
<rect width="1" height=".96" x="475" y="0" fill="#B299DF" />
<rect width="1" height=".96" x="476" y="0" fill="#B39AE0" />
<rect width="1" height=".96" x="477" y="0" fill="#B59BE0" />
<rect width="1" height=".96" x="478" y="0" fill="#B79BE1" />
<rect width="1" height=".96" x="479" y="0" fill="#B89CE2" />
<rect width="1" height=".96" x="480" y="0" fill="#BA9DE2" />
<rect width="1" height=".96" x="481" y="0" fill="#BB9DE3" />
<rect width="1" height=".96" x="482" y="0" fill="#BD9EE3" />
<rect width="1" height=".96" x="483" y="0" fill="#BF9FE4" />
<rect width="1" height=".96" x="484" y="0" fill="#C09FE5" />
<rect width="1" height=".96" x="485" y="0" fill="#C2A0E5" />
<rect width="1" height=".96" x="486" y="0" fill="#C3A0E6" />
<rect width="1" height=".96" x="487" y="0" fill="#C5A1E6" />
<rect width="1" height=".96" x="488" y="0" fill="#C6A2E6" />
<rect width="1" height=".96" x="489" y="0" fill="#C8A2E7" />
<rect width="1" height=".96" x="490" y="0" fill="#C9A3E7" />
<rect width="1" height=".96" x="491" y="0" fill="#CBA3E8" />
<rect width="1" height=".96" x="492" y="0" fill="#CCA4E8" />
<rect width="1" height=".96" x="493" y="0" fill="#CEA4E8" />
<rect width="1" height=".96" x="494" y="0" fill="#CFA5E9" />
<rect width="1" height=".96" x="495" y="0" fill="#D1A5E9" />
<rect width="1" height=".96" x="496" y="0" fill="#D2A6E9" />
<rect width="1" height=".96" x="497" y="0" fill="#D3A6E9" />
<rect width="1" height=".96" x="498" y="0" fill="#D5A7EA" />
<rect width="1" height=".96" x="499" y="0" fill="#D6A7EA" />
<rect width="1" height=".96" x="500" y="0" fill="#D7A8EA" />
<rect width="1" height=".96" x="501" y="0" fill="#D9A8EA" />
<rect width="1" height=".96" x="502" y="0" fill="#DAA8EA" />
<rect width="1" height=".96" x="503" y="0" fill="#DBA9EA" />
<rect width="1" height=".96" x="504" y="0" fill="#DCA9EA" />
<rect width="1" height=".96" x="505" y="0" fill="#DEA9EA" />
<rect width="1" height=".96" x="506" y="0" fill="#DFA9EA" />
<rect width="1" height=".96" x="507" y="0" fill="#E0AAEA" />
<rect width="1" height=".96" x="508" y="0" fill="#E1AAEA" />
<rect width="1" height=".96" x="509" y="0" fill="#E2AAEA" />
<rect width="1" height=".96" x="510" y="0" fill="#E3AAEA" />
<rect width="1" height=".96" x="511" y="0" fill="#E4AAEA" />
<rect width="1" height=".96" x="512" y="0" fill="#E5ABE9" />
<rect width="1" height=".96" x="513" y="0" fill="#E6ABE9" />
<rect width="1" height=".96" x="514" y="0" fill="#E7ABE9" />
<rect width="1" height=".96" x="515" y="0" fill="#E8ABE9" />
<rect width="1" height=".96" x="516" y="0" fill="#E8ABE8" />
<rect width="1" height=".96" x="517" y="0" fill="#E9ABE8" />
<rect width="1" height=".96" x="518" y="0" fill="#EAABE7" />
<rect width="1" height=".96" x="519" y="0" fill="#EBABE7" />
<rect width="1" height=".96" x="520" y="0" fill="#EBABE6" />
<rect width="1" height=".96" x="521" y="0" fill="#ECAAE6" />
<rect width="1" height=".96" x="522" y="0" fill="#EDAAE5" />
<rect width="1" height=".96" x="523" y="0" fill="#EDAAE5" />
<rect width="1" height=".96" x="524" y="0" fill="#EEAAE4" />
<rect width="1" height=".96" x="525" y="0" fill="#EEAAE3" />
<rect width="1" height=".96" x="526" y="0" fill="#EFA9E3" />
<rect width="1" height=".96" x="527" y="0" fill="#EFA9E2" />
<rect width="1" height=".96" x="528" y="0" fill="#F0A9E1" />
<rect width="1" height=".96" x="529" y="0" fill="#F0A9E0" />
<rect width="1" height=".96" x="530" y="0" fill="#F0A8E0" />
<rect width="1" height=".96" x="531" y="0" fill="#F1A8DF" />
<rect width="1" height=".96" x="532" y="0" fill="#F1A7DE" />
<rect width="1" height=".96" x="533" y="0" fill="#F1A7DD" />
<rect width="1" height=".96" x="534" y="0" fill="#F2A7DC" />
<rect width="1" height=".96" x="535" y="0" fill="#F2A6DB" />
<rect width="1" height=".96" x="536" y="0" fill="#F2A6DA" />
<rect width="1" height=".96" x="537" y="0" fill="#F2A5D9" />
<rect width="1" height=".96" x="538" y="0" fill="#F2A4D8" />
<rect width="1" height=".96" x="539" y="0" fill="#F2A4D6" />
<rect width="1" height=".96" x="540" y="0" fill="#F2A3D5" />
<rect width="1" height=".96" x="541" y="0" fill="#F2A3D4" />
<rect width="1" height=".96" x="542" y="0" fill="#F2A2D3" />
<rect width="1" height=".96" x="543" y="0" fill="#F2A1D2" />
<rect width="1" height=".96" x="544" y="0" fill="#F2A1D0" />
<rect width="1" height=".96" x="545" y="0" fill="#F2A0CF" />
<rect width="1" height=".96" x="546" y="0" fill="#F29FCE" />
<rect width="1" height=".96" x="547" y="0" fill="#F19FCC" />
<rect width="1" height=".96" x="548" y="0" fill="#F19ECB" />
<rect width="1" height=".96" x="549" y="0" fill="#F19DCA" />
<rect width="1" height=".96" x="550" y="0" fill="#F19CC8" />
<rect width="1" height=".96" x="551" y="0" fill="#F09BC7" />
<rect width="1" height=".96" x="552" y="0" fill="#F09BC5" />
<rect width="1" height=".96" x="553" y="0" fill="#F09AC4" />
<rect width="1" height=".96" x="554" y="0" fill="#EF99C2" />
<rect width="1" height=".96" x="555" y="0" fill="#EF98C1" />
<rect width="1" height=".96" x="556" y="0" fill="#EE97BF" />
<rect width="1" height=".96" x="557" y="0" fill="#EE96BE" />
<rect width="1" height=".96" x="558" y="0" fill="#ED95BC" />
<rect width="1" height=".96" x="559" y="0" fill="#ED94BB" />
<rect width="1" height=".96" x="560" y="0" fill="#EC93B9" />
<rect width="1" height=".96" x="561" y="0" fill="#EC92B7" />
<rect width="1" height=".96" x="562" y="0" fill="#EB91B6" />
<rect width="1" height=".96" x="563" y="0" fill="#EB90B4" />
<rect width="1" height=".96" x="564" y="0" fill="#EA8FB2" />
<rect width="1" height=".96" x="565" y="0" fill="#E98EB1" />
<rect width="1" height=".96" x="566" y="0" fill="#E98DAF" />
<rect width="1" height=".96" x="567" y="0" fill="#E88DAD" />
<rect width="1" height=".96" x="568" y="0" fill="#E88CAC" />
<rect width="1" height=".96" x="569" y="0" fill="#E78BAA" />
<rect width="1" height=".96" x="570" y="0" fill="#E68AA8" />
<rect width="1" height=".96" x="571" y="0" fill="#E588A6" />
<rect width="1" height=".96" x="572" y="0" fill="#E587A5" />
<rect width="1" height=".96" x="573" y="0" fill="#E486A3" />
<rect width="1" height=".96" x="574" y="0" fill="#E385A1" />
<rect width="1" height=".96" x="575" y="0" fill="#E384A0" />
<rect width="1" height=".96" x="576" y="0" fill="#E2839E" />
<rect width="1" height=".96" x="577" y="0" fill="#E1829C" />
<rect width="1" height=".96" x="578" y="0" fill="#E0819A" />
<rect width="1" height=".96" x="579" y="0" fill="#E08199" />
<rect width="1" height=".96" x="580" y="0" fill="#DF8097" />
<rect width="1" height=".96" x="581" y="0" fill="#DE7F95" />
<rect width="1" height=".96" x="582" y="0" fill="#DD7E94" />
<rect width="1" height=".96" x="583" y="0" fill="#DD7D92" />
<rect width="1" height=".96" x="584" y="0" fill="#DC7C90" />
<rect width="1" height=".96" x="585" y="0" fill="#DB7B8E" />
<rect width="1" height=".96" x="586" y="0" fill="#DA7A8D" />
<rect width="1" height=".96" x="587" y="0" fill="#DA798B" />
<rect width="1" height=".96" x="588" y="0" fill="#D97889" />
<rect width="1" height=".96" x="589" y="0" fill="#D87788" />
<rect width="1" height=".96" x="590" y="0" fill="#D77686" />
<rect width="1" height=".96" x="591" y="0" fill="#D77584" />
<rect width="1" height=".96" x="592" y="0" fill="#D67483" />
<rect width="1" height=".96" x="593" y="0" fill="#D57481" />
<rect width="1" height=".96" x="594" y="0" fill="#D57380" />
<rect width="1" height=".96" x="595" y="0" fill="#D4727E" />
<rect width="1" height=".96" x="596" y="0" fill="#D3717C" />
<rect width="1" height=".96" x="597" y="0" fill="#D3707B" />
<rect width="1" height=".96" x="598" y="0" fill="#D27079" />
<rect width="1" height=".96" x="599" y="0" fill="#D16F78" />
<rect width="1" height=".96" x="600" y="0" fill="#D16E76" />
<rect width="1" height=".96" x="601" y="0" fill="#D06E75" />
<rect width="1" height=".96" x="602" y="0" fill="#D06D73" />
<rect width="1" height=".96" x="603" y="0" fill="#CF6C72" />
<rect width="1" height=".96" x="604" y="0" fill="#CE6C71" />
<rect width="1" height=".96" x="605" y="0" fill="#CE6B6F" />
<rect width="1" height=".96" x="606" y="0" fill="#CD6B6E" />
<rect width="1" height=".96" x="607" y="0" fill="#CD6A6C" />
<rect width="1" height=".96" x="608" y="0" fill="#CC6A6B" />
<rect width="1" height=".96" x="609" y="0" fill="#CC696A" />
<rect width="1" height=".96" x="610" y="0" fill="#CC6968" />
<rect width="1" height=".96" x="611" y="0" fill="#CB6867" />
<rect width="1" height=".96" x="612" y="0" fill="#CB6866" />
<rect width="1" height=".96" x="613" y="0" fill="#CA6765" />
<rect width="1" height=".96" x="614" y="0" fill="#CA6763" />
<rect width="1" height=".96" x="615" y="0" fill="#CA6762" />
<rect width="1" height=".96" x="616" y="0" fill="#C96661" />
<rect width="1" height=".96" x="617" y="0" fill="#C96660" />
<rect width="1" height=".96" x="618" y="0" fill="#C9665F" />
<rect width="1" height=".96" x="619" y="0" fill="#C9665E" />
<rect width="1" height=".96" x="620" y="0" fill="#C8655C" />
<rect width="1" height=".96" x="621" y="0" fill="#C8655B" />
<rect width="1" height=".96" x="622" y="0" fill="#C8655A" />
<rect width="1" height=".96" x="623" y="0" fill="#C86559" />
<rect width="1" height=".96" x="624" y="0" fill="#C86558" />
<rect width="1" height=".96" x="625" y="0" fill="#C86557" />
<rect width="1" height=".96" x="626" y="0" fill="#C86556" />
<rect width="1" height=".96" x="627" y="0" fill="#C86555" />
<rect width="1" height=".96" x="628" y="0" fill="#C86555" />
</svg>